<?xml version="1.0" encoding="utf-8"?>
<!-- Generator: Adobe Illustrator 26.0.2, SVG Export Plug-In . SVG Version: 6.00 Build 0)  -->
<svg version="1.1" id="Layer_1" xmlns="http://www.w3.org/2000/svg" xmlns:xlink="http://www.w3.org/1999/xlink" x="0px" y="0px"
	 viewBox="0 0 1080 1080" style="enable-background:new 0 0 1080 1080;" xml:space="preserve">
<style type="text/css">
	.st0{fill:#005F99;}
	.st1{fill:#FFC300;}
	.st2{fill:#484647;}
	.st3{fill:#009C7F;}
	.st4{fill:#EC6307;}
	.st5{fill:#6D41AB;}
	.st6{fill:#FFFFFF;}
	.st7{fill:#322F30;}
</style>
<g>
	<g transform="translate(314.395103, 715.979216)">
	</g>
</g>
<g>
	<g transform="translate(466.240157, 715.979216)">
	</g>
</g>
<g>
	<g transform="translate(526.60828, 715.979216)">
	</g>
</g>
<g>
	<g>
		<path class="st0" d="M315.5,497.4c-4.2,1.3-6.1,8.7-7.7,15c-0.8,3.2-0.9,4.7-1.5,7.7c-1.3,7.4-3.3,12.7-5.4,18.7
			c-4.7,12.9-10.8,24.9-14.2,32.3c-2,4.3-10.3,21.9-13.6,40.3c-3.3,18.5-1.5,32.8,1.9,57.6c3.4,24.4,5.2,38.1,10.8,54.7
			c18.8,56.2,60.4,89.1,72.4,98.3c19.1,14.6,16.4,7.5,50.6,30.4c41.5,27.8,62.7,42.1,76.1,68.2c9.4,18.3,18.9,49.7,18.9,49.7
			c0,0,42.4-51.9,37.1-102c-4-38.3-35.7-72.8-45.8-83.8c-6-6.6-11.6-11.6-12.1-12.1c-20.4-18.6-32.3-21-62-41.7
			c-11.2-7.8-16.8-11.8-22.8-17.7c-12-11.9-18.8-23.8-27.4-39.1c-12.8-22.8-11.1-25.8-20.7-37.8c-3.3-4.1-21.2-26.6-32.5-22.2
			c-3.5,1.4-5.2,4.8-5.8,6.1c-5,10.4,4.5,21,11.6,42.2c4.6,13.6,2,13.3,5.9,25.7c9.8,31.1,30.2,47.6,29.1,48.5
			c-1.2,1.1-26.5-16.3-38.1-46.3c-3.7-9.5-2.7-11.7-8.5-26.9c-6.4-16.5-10.1-20.9-11.2-32.3c0-0.3-0.1-0.7-0.1-1.3
			c-0.3-3.5-1.5-19,6.2-24.3c3.8-2.6,6.8-0.8,9.9-4.2c2.4-2.7,2.5-6.1,2.6-7.3c1.4-20.9,26-69.1,7.2-90.6
			C325.8,502.5,320,496,315.5,497.4z"/>
		<path class="st0" d="M512.1,568.8"/>
		<path class="st0" d="M345,518.9c-3.3,1.7-4.2,6.2-4.7,8.7c-0.5,2.8-9.1,46.9-17.2,66.8c-0.5,1.2-2.3,4.4-1.1,7.3
			c1.2,2.7,3.7,2,8.6,5.4c3.7,2.5,5.5,5.1,11.4,8.9c0.9,0.6,1.8,1.1,3,1c3-0.5,4.4-5.9,5.2-8.3c5-15.4,7.4-30.7,7.4-30.7
			c1.8-11.6,6.6-38.4,3.7-49.5c-0.1-0.3-0.4-1.6-1.3-3.1C356.9,520.1,349.4,516.8,345,518.9z"/>
		<path class="st0" d="M375.5,543.3c-3.4,1.7-4.2,6.3-4.7,8.7c-4.5,24.3-14.6,65.1-17.7,72c-0.1,0.3-0.5,1-0.6,2.1
			c-0.3,3.9,3.3,6.1,7.5,11.2c0.4,0.4,0,0,8,12.2c3.9,5.9,4.4,6.7,5.3,6.6c1.9-0.1,3.7-7.8,7.3-23.2c3.2-13.9,4.3-18.6,7.4-30.7
			c0,0,0,0,0,0c1.8-11.6,6.6-38.4,3.7-49.5c-0.1-0.3-0.4-1.6-1.3-3.1C387.3,544.4,379.8,541.1,375.5,543.3z"/>
		<path class="st0" d="M398.1,593.8c-3.5,1.6-4.3,6.7-4.7,8.7c-3.4,20.6-9.8,40.5-14,60.9c-0.1,0.6-0.3,1.3-0.3,2.2
			c-0.6,7.1,3.6,11.9,9.4,20.9c6.3,9.9,6.8,12.8,8.3,12.6c2.8-0.5,1.6-10.2,5.3-27.7c2.1-9.6,3.2-9.9,6.4-23.7
			c2.4-10.2,3.6-15.3,3.9-20.4c0.9-13.9-2.2-31.2-9.8-33.7C402.3,593.6,400.2,592.9,398.1,593.8z"/>
	</g>
	<g>
		<path class="st1" d="M779.5,497.4c4.2,1.3,6.1,8.7,7.7,15c0.8,3.2,0.9,4.7,1.5,7.7c1.3,7.4,3.3,12.7,5.4,18.7
			c4.7,12.9,10.8,24.9,14.2,32.3c2,4.3,10.3,21.9,13.6,40.3c3.3,18.5,1.5,32.8-1.9,57.6c-3.4,24.4-5.2,38.1-10.8,54.7
			c-18.8,56.2-60.4,89.1-72.4,98.3c-19.1,14.6-16.4,7.5-50.6,30.4c-41.5,27.8-62.7,42.1-76.1,68.2c-9.4,18.3-18.9,49.7-18.9,49.7
			c0,0-42.4-51.9-37.1-102c4-38.3,35.7-72.8,45.8-83.8c6-6.6,11.6-11.6,12.1-12.1c20.4-18.6,32.3-21,62-41.7
			c11.2-7.8,16.8-11.8,22.8-17.7c12-11.9,18.8-23.8,27.4-39.1c12.8-22.8,11.1-25.8,20.7-37.8c3.3-4.1,21.2-26.6,32.5-22.2
			c3.5,1.4,5.2,4.8,5.8,6.1c5,10.4-4.5,21-11.6,42.2c-4.6,13.6-2,13.3-5.9,25.7c-9.8,31.1-30.2,47.6-29.1,48.5
			c1.2,1.1,26.5-16.3,38.1-46.3c3.7-9.5,2.7-11.7,8.5-26.9c6.4-16.5,10.1-20.9,11.2-32.3c0-0.3,0.1-0.7,0.1-1.3
			c0.3-3.5,1.5-19-6.2-24.3c-3.8-2.6-6.8-0.8-9.9-4.2c-2.4-2.7-2.5-6.1-2.6-7.3c-1.4-20.9-26-69.1-7.2-90.6
			C769.1,502.5,775,496,779.5,497.4z"/>
		<path class="st1" d="M582.9,568.8"/>
		<path class="st1" d="M750,518.9c3.3,1.7,4.2,6.2,4.7,8.7c0.5,2.8,9.1,46.9,17.2,66.8c0.5,1.2,2.3,4.4,1.1,7.3
			c-1.2,2.7-3.7,2-8.6,5.4c-3.7,2.5-5.5,5.1-11.4,8.9c-0.9,0.6-1.8,1.1-3,1c-3-0.5-4.4-5.9-5.2-8.3c-5-15.4-7.4-30.7-7.4-30.7
			c-1.8-11.6-6.6-38.4-3.7-49.5c0.1-0.3,0.4-1.6,1.3-3.1C738.1,520.1,745.6,516.8,750,518.9z"/>
		<path class="st1" d="M719.5,543.3c3.4,1.7,4.2,6.3,4.7,8.7c4.5,24.3,14.6,65.1,17.7,72c0.1,0.3,0.5,1,0.6,2.1
			c0.3,3.9-3.3,6.1-7.5,11.2c-0.4,0.4,0,0-8,12.2c-3.9,5.9-4.4,6.7-5.3,6.6c-1.9-0.1-3.7-7.8-7.3-23.2c-3.2-13.9-4.3-18.6-7.4-30.7
			c0,0,0,0,0,0c-1.8-11.6-6.6-38.4-3.7-49.5c0.1-0.3,0.4-1.6,1.3-3.1C707.7,544.4,715.2,541.1,719.5,543.3z"/>
		<path class="st1" d="M696.9,593.8c3.5,1.6,4.3,6.7,4.7,8.7c3.4,20.6,9.8,40.5,14,60.9c0.1,0.6,0.3,1.3,0.3,2.2
			c0.6,7.1-3.6,11.9-9.4,20.9c-6.3,9.9-6.8,12.8-8.3,12.6c-2.8-0.5-1.6-10.2-5.3-27.7c-2.1-9.6-3.2-9.9-6.4-23.7
			c-2.4-10.2-3.6-15.3-3.9-20.4c-0.9-13.9,2.2-31.2,9.8-33.7C692.7,593.6,694.8,592.9,696.9,593.8z"/>
	</g>
	<path class="st2" d="M649.3,600.4H448.1c-9,0-16.4-7.3-16.4-16.4c0-9,7.3-16.4,16.4-16.4h201.2c9,0,16.4,7.3,16.4,16.4
		C665.7,593,658.4,600.4,649.3,600.4z"/>
	<path class="st2" d="M653.4,654.1H444c-6.8,0-12.3-5.5-12.3-12.3v-8.2c0-6.8,5.5-12.3,12.3-12.3h209.4c6.8,0,12.3,5.5,12.3,12.3
		v8.2C665.7,648.6,660.2,654.1,653.4,654.1z"/>
	<path class="st2" d="M630.2,675c-55.5,0-111,0-166.5-0.1c1.9,4.4,4.8,10.5,9.4,17c4.2,6,29.9,43,75.4,42.9
		c33.4-0.1,62.4-20.1,75.6-44.4C627.3,684.5,629.1,679.1,630.2,675z"/>
	<path class="st0" d="M543.7,380.8c3.1-1.4,4.8-3.2,5.8-4.3c3.5-4.3,3.8-10,4.1-15c0.3-5-0.4-5.6,0.6-7.1c1.7-2.8,5.3-2.9,14.7-3.9
		c14.6-1.6,14.8-2.2,16.5-1.3c6.6,3.4,3.6,12.1,11.3,17.8c0.3,0.3,6.4,4.6,13.4,3.3c8.9-1.6,10.3-10.3,17.4-10.3
		c1.9,0,5.3,2.2,11.8,6.6c7.2,4.9,10.8,7.3,11.5,8.9c3,7.3-5.7,14.3-2.8,23.8c0.8,2.7,2.4,4.9,2.5,5.1c0.7,0.9,2.7,3.6,6.9,5.6
		c8.1,4,12.4-0.1,16.9,3.3c2.5,1.9,3.2,6.1,4.7,14.6c1.7,9.8,2.7,13.2,0.6,15.6c-0.2,0.2-1.2,0.8-3.2,2c-3.6,2-7.6,4.1-12.1,6.6
		c-2.2,1.2-2.5,1.4-2.9,1.8c-0.9,0.9-2.4,2.8-2.6,9.4c-0.1,4.1-0.2,7.3,1.1,11.2c2.6,8.1,7.9,8.5,7.8,13.4
		c-0.1,2.4-1.3,2.9-7.6,10.9c-6.9,8.9-6.5,9.7-8.4,10.4c-6.8,2.5-12-6.9-20.1-4.4c-0.5,0.2-3.4,2.3-9.2,6.7c-3.3,2.5-4.9,3.8-6,6.1
		c-0.5,1-0.6,1.7-1.1,6.1c-1,8.5-0.8,8.7-1.3,9.4c-1.7,2.5-4.5,1.6-14.4,3.3c-8.8,1.5-10,2.7-12.2,1.4c-2.6-1.5-1.7-3.7-6.5-12.4
		c-2.2-4-3.4-5.4-5.1-6.3c-1.4-0.8-1.9-0.5-6.8-1.4c-5.6-1-6.6-1.6-7.7-1.5c0,0-0.4,0-0.8,0.1c-3.9,0.7-8.6,3.9-8.6,3.9
		c-2.5,1.7-5.3,3.8-8.3,6.3C543.7,477.7,543.7,429.2,543.7,380.8z"/>
	<path class="st3" d="M544.5,295.3c0,17.1,0,34.3,0,51.5c0,3.7,0,8.1,0,11.9c0,0,1.9,0,2.3,0c2.2-0.1,4.1-1.8,4.7-2.4
		c4.5-3.9,1-13,6.4-18.1c1.4-1.3,3.7-2.3,8.2-4.2c2.6-1.1,3.9-1.6,5.2-1.6c3.2,0,5.3,2.3,9.3,6.2c6.6,6.3,9.9,9.5,12.1,9.8
		c2.9,0.4,3.7-1.2,12.3-5.8c10.7-5.7,12.2-4.7,13.6-7.3c1.2-2.3-0.8-3.2-2.6-12.9c-1.1-5.8-0.9-7.6-0.3-9.1c0.8-1.9,2.5-3.3,5.9-6
		c4.4-3.6,6.7-5.4,9.6-5.8c1.9-0.3,3.8,0.2,7.6,1.2c7.9,2.1,8.6,3.9,11.5,3.5c2.8-0.4,5.1-3.4,9.6-9.4c5.5-7.3,8.2-10.9,7.8-13.6
		c-0.5-2.6-2.1-2.7-9.8-12.5c-1.4-1.8-2.3-3-2.7-4.8c-0.4-1.5-0.4-3.3,1.5-9.5c1.4-4.7,2.2-7.1,3.1-8.2c1.2-1.5,2.8-2.5,10.3-4.7
		c10.2-3,11.3-2.3,12.8-4.2c1.8-2.2,0.9-3.9,1.1-14.9c0.2-9,0.9-10.1-0.4-12c-1.8-2.6-4-1.9-13.7-5.8c-7.7-3.1-9.3-4.7-10-6.6
		c-0.6-1.6,0.1-1.9,0.1-6.7c0-5.6-0.9-6.4-0.3-9.1c0.4-1.7,1.1-2.9,4.9-7.1c7.8-8.7,9-8.4,9.5-10.8c0.5-2.5-1.5-6.1-5.5-13.3
		c-2.8-5.1-4.2-7.6-6-8.5c-3-1.5-4.7-0.1-14.3,0.8c-6.1,0.6-9.2,0.9-12-0.3c-5.4-2.3-7.5-7.3-7.8-7.9c-0.7-1.7-1.2-3.7-0.8-8.7
		c0.9-11.7,4.4-13.1,2.9-17.7c-0.8-2.6-4.7-5.4-12.3-10.9c-4.5-3.2-6.7-4.8-7.8-4.9c-8.7-0.9-13.1,14.9-22.6,14.2
		c-2.1-0.2-4.3-1.1-8.3-2.9c-3.9-1.7-5.8-2.5-7.3-4c-1.8-1.7-2.2-3.3-4.8-13c-2.3-8.5-2.5-9.7-4-10.8c-2-1.4-5-1.4-11-1.3
		c-3.3,0.1-5.9,0.6-7.2,0.3c-0.1,0-0.3-0.1-0.5,0c-0.8,0.3-0.7,2.1-0.6,2.8c0,0,0.4,7,0.6,13.3c0,0.3,0,0.9,0,1.9
		c0.1,13.1-0.1,15.7,0.1,22.8c0,1.3,0.5,19.7-0.2,21.2c0,0-0.1,0.2,0,0.4c0.2,0.5,1.7,0.4,3.6,0.4c1.1,0,2.3,0,3.4,0
		c2.9-0.2,59.2,16,66.5,66.6c3.7,25.9-7,49.6-20.4,64.2c-5,5.4-14.7,16-29.9,20.2C567.6,291,564.5,291.9,544.5,295.3z"/>
	<path class="st4" d="M645,337.5c-2.4,1.6-2.8,4.7-3.6,11c-0.6,4.6-0.9,6.9,0.4,9c0.8,1.3,1.4,1.4,6.5,4.6c6,3.8,7.2,4.8,7.7,6.4
		c0.3,1,0.3,1.7-0.3,5.2c-1.7,9.9-2.7,11.4-1.9,13.9c0.3,1,2,2.6,5.3,5.8c6.6,6.4,8.5,6.6,9.3,6.7c2.2,0.1,2.5-1.1,6.4-2.1
		c2.6-0.7,6.4-1.7,9.4-0.6c6,2.2,4.1,11,10.4,13.9c1,0.5,4,0.4,9.9,0.2c8.7-0.3,10-1.1,10.6-1.6c3-2.3,1.4-5.1,4.9-8.7
		c0.7-0.7,4-4,8.2-3.9c3.3,0.1,3.8,2.1,7,2.5c4,0.5,7.4-2.1,10.2-4.3c2.8-2.2,8.2-6.4,8-11.7c-0.2-3.4-2.5-3.8-3.2-8.6
		c-0.2-1.7-0.7-5.3,1.1-8c2.9-4.3,8.2-1.7,11.7-5.8c2.1-2.4,2-6,1.9-13.1c-0.1-5.5-0.1-8.2-1.6-10.3c-3.8-5.4-11.4-2.6-13.4-6.7
		c-2.2-4.5,6.5-9.5,4.8-17.1c-0.7-3.1-2.9-5.1-7.1-9.1c-4.2-3.9-6.5-6.1-9.7-6.1c-4.6,0-5.6,4.4-11.4,4.6c-1,0-3.9,0-6.3-1.8
		c-1.7-1.4-2.6-3.2-3.4-4.9c-1.3-2.7-0.8-3.3-1.6-4.6c-2.3-4.1-9.4-4.2-13.7-4.3c-5.3-0.1-7.9-0.2-10.1,1.6
		c-2.9,2.3-5.2,7.7-6.3,10.2c-0.3,0.7-0.9,2.1-2.3,3.3c-1.6,1.4-3.4,1.7-3.8,1.8c-5.5,1-8.6-5-13.5-4.1c-1.4,0.2-2.8,1.6-5.6,4.3
		c-4.4,4.2-8.8,8.6-7.9,12.5c0.5,2.3,2.4,2.4,3.1,5.7c0.2,1.2,0.2,2.4,0,4.9c-0.1,2.6-0.4,3.3-0.6,3.7c-0.4,0.8-1.1,1.8-2.8,2.9
		C648.8,337.2,647.1,336.1,645,337.5z"/>
	<path class="st5" d="M692.8,241.1c-1.4,0.9-1.6,2.7-2,6.2c-0.3,2.6-0.5,3.9,0.2,5.1c0.4,0.7,0.8,0.8,3.7,2.6
		c3.4,2.1,4.1,2.7,4.4,3.6c0.2,0.6,0.2,1-0.2,2.9c-1,5.6-1.6,6.4-1.1,7.9c0.2,0.6,1.1,1.5,3,3.3c3.7,3.6,4.8,3.8,5.3,3.8
		c1.3,0.1,1.4-0.6,3.6-1.2c1.5-0.4,3.6-1,5.3-0.3c3.4,1.2,2.3,6.2,5.9,7.9c0.6,0.3,2.2,0.2,5.6,0.1c4.9-0.2,5.6-0.6,6-0.9
		c1.7-1.3,0.8-2.9,2.8-4.9c0.4-0.4,2.2-2.3,4.6-2.2c1.8,0,2.1,1.2,4,1.4c2.3,0.3,4.2-1.2,5.8-2.4c1.6-1.2,4.7-3.6,4.5-6.6
		c-0.1-1.9-1.4-2.2-1.8-4.9c-0.1-1-0.4-3,0.6-4.5c1.6-2.4,4.7-1,6.7-3.3c1.2-1.4,1.2-3.4,1.1-7.4c-0.1-3.1-0.1-4.7-0.9-5.8
		c-2.1-3.1-6.5-1.5-7.6-3.8c-1.2-2.6,3.7-5.4,2.7-9.7c-0.4-1.8-1.6-2.9-4-5.1c-2.4-2.2-3.7-3.4-5.5-3.4c-2.6,0-3.2,2.5-6.4,2.6
		c-0.6,0-2.2,0-3.6-1c-1-0.8-1.5-1.8-1.9-2.8c-0.7-1.5-0.5-1.9-0.9-2.6c-1.3-2.3-5.3-2.4-7.7-2.4c-3-0.1-4.5-0.1-5.7,0.9
		c-1.6,1.3-2.9,4.3-3.5,5.8c-0.2,0.4-0.5,1.2-1.3,1.9c-0.9,0.8-1.9,0.9-2.2,1c-3.1,0.6-4.9-2.8-7.6-2.3c-0.8,0.1-1.6,0.9-3.2,2.4
		c-2.5,2.4-5,4.9-4.5,7.1c0.3,1.3,1.4,1.4,1.7,3.2c0.1,0.7,0.1,1.4,0,2.8c-0.1,1.5-0.2,1.9-0.4,2.1c-0.2,0.4-0.6,1-1.6,1.6
		C694.9,240.9,694,240.3,692.8,241.1z"/>
	<circle class="st6" cx="585" cy="444.4" r="33.7"/>
	<circle class="st6" cx="703.4" cy="350.3" r="22.3"/>
	<circle class="st6" cx="725.7" cy="248.1" r="13.9"/>
	<circle class="st6" cx="541.3" cy="218.3" r="77.7"/>
	<path d="M568.1,536.2"/>
	<path d="M705.8,224.5"/>
	<path class="st6" d="M523.9,444.7c0.2,30.6,0.5,61.3,0.7,91.9L523.9,444.7z"/>
	<path class="st6" d="M329.8,294.6c0-1.2,0.1-2.3,0.1-3.5"/>
	<path class="st6" d="M329.8,299.6c0-1.7,0-3.3,0.1-5"/>
	<path class="st6" d="M546.1,522.1c-1.7,0-3.4,0.1-5.1,0.1c-8.6,0-17-0.5-25.3-1.6"/>
	<path class="st1" d="M542.5,77.2c-118.2,4.4-212.7,103.6-212.7,225.4c0,122.7,96,222.6,215.5,225.5"/>
	<rect x="442" y="137.2" class="st1" width="102.8" height="399.4"/>
	<rect x="541.3" y="77.2" class="st1" width="3.5" height="399.4"/>
	<path class="st7" d="M521.3,285.8c2.1,0,3.9,1.7,3.9,3.9c0,2.1-1.7,3.9-3.9,3.9c-2.1,0-3.9-1.7-3.9-3.9
		C517.4,287.5,519.1,285.8,521.3,285.8z M495.8,388.8l26.7-26.6v-67.5c2.2-0.5,3.9-2.5,3.9-4.9c0-2.8-2.3-5.1-5.1-5.1
		c-2.8,0-5.1,2.3-5.1,5.1c0,2.4,1.7,4.4,3.9,4.9v66.6l-26.7,26.6V433l17.6,13.7v89.9h2.4v-91l-17.6-13.7V388.8"/>
	<path class="st7" d="M419.8,448.3c-1.5-1.5-1.5-3.8,0-5.3c1.5-1.5,3.8-1.5,5.3,0c1.5,1.5,1.5,3.8,0,5.3
		C423.6,449.8,421.2,449.8,419.8,448.3z M427.8,397.1c2.1,0,3.7,1.7,3.7,3.7c0,2.1-1.7,3.7-3.7,3.7c-2.1,0-3.7-1.7-3.7-3.7
		C424.1,398.7,425.8,397.1,427.8,397.1z M474.8,445.4l-16.7-16.7h-19.3l-9.8-9.8v-13.3c2.1-0.5,3.7-2.4,3.7-4.7
		c0-2.7-2.2-4.9-4.9-4.9c-2.7,0-4.9,2.2-4.9,4.9c0,2.3,1.6,4.2,3.7,4.7v14.3l10,10l-11.8,11.8c-1.9-1.1-4.4-0.9-6,0.7
		c-1.9,1.9-1.9,5,0,6.9c1.9,1.9,5,1.9,6.9,0c-0.5,0.5-0.9,0.9,0,0c0.2-0.2,0.4-0.4,0.5-0.5c-0.1,0.1-0.3,0.3-0.5,0.5
		c1.6-1.6,1.8-4.1,0.7-6l12.2-12.2h18.3l15.4,15.4v31.2l22.4,22.4v16.8h2.3v-17.7l-22.4-22.4V445.4"/>
	<rect x="494.9" y="514.2" class="st7" width="2.3" height="22.4"/>
	<path class="st7" d="M460.2,373.6c2.1,0,3.9,1.7,3.9,3.8s-1.7,3.8-3.9,3.8c-2.1,0-3.9-1.7-3.9-3.8S458.1,373.6,460.2,373.6z
		 M474.8,396.2c-2.5,0-4.4,2-4.4,4.4c0,2,1.4,3.7,3.3,4.3v20.2l-12.2-12.2v-30.6c2.2-0.5,3.9-2.5,3.9-4.9c0-2.8-2.3-5-5-5
		c-2.8,0-5,2.3-5,5c0,2.4,1.6,4.3,3.9,4.9v31.6l16.9,16.9v-25.9c1.9-0.5,3.3-2.2,3.3-4.3C479.2,398.1,477.2,396.2,474.8,396.2"/>
	<path class="st7" d="M370.3,286.4c2.2,0,4,1.8,4,4c0,2.2-1.8,4-4,4s-4-1.8-4-4C366.3,288.2,368.1,286.4,370.3,286.4z M429.9,274.3
		c2.2,0,4,1.8,4,4s-1.8,4-4,4s-4-1.8-4-4S427.7,274.3,429.9,274.3z M370.3,295.6c2.4,0,4.5-1.7,5-4H409l19.7,19.7V328l-11-11h-15.2
		l-9.7,9.7c-1.7-1-4-0.8-5.5,0.7c-1.8,1.8-1.8,4.7,0,6.5c1.8,1.8,4.7,1.8,6.5,0c1.5-1.5,1.7-3.7,0.7-5.5l9-9h13.2l12,12v14
		l15.5,15.5v47.2c-1.9,0.5-3.4,2.3-3.4,4.4c0,2.5,2.1,4.6,4.6,4.6c2.5,0,4.6-2.1,4.6-4.6c0-2.1-1.4-3.9-3.4-4.4V360l-15.5-15.5
		v-61.2c2.3-0.6,4-2.6,4-5c0-2.9-2.3-5.2-5.2-5.2c-2.9,0-5.2,2.3-5.2,5.2c0,2.4,1.7,4.5,4,5v24.6L410,289.2h-34.6
		c-0.6-2.3-2.6-4-5-4c-2.9,0-5.2,2.3-5.2,5.2C365.1,293.3,367.4,295.6,370.3,295.6"/>
	<path class="st7" d="M458.7,493.2c1.9-0.5,3.3-2.2,3.3-4.3c0-2.4-2-4.4-4.4-4.4c-2.4,0-4.4,2-4.4,4.4c0,2,1.4,3.7,3.3,4.3v11.1
		l22.6,22.6v9.7h2.4V526l-22.6-22.6V493.2"/>
	<path class="st7" d="M496.1,363.1c-2.1,0-3.9-1.7-3.9-3.9c0-2.1,1.7-3.9,3.9-3.9c2.1,0,3.9,1.7,3.9,3.9
		C500,361.4,498.2,363.1,496.1,363.1z M491.1,359.2c0,2.8,2.3,5.1,5.1,5.1c2.8,0,5.1-2.3,5.1-5.1c0-2.4-1.7-4.4-3.9-4.9v-24.6
		l-11.4-11.4v48.3l-7.2,7.2c-1.7-1-3.9-0.7-5.3,0.7c-1.7,1.7-1.7,4.6,0,6.3c1.7,1.7,4.6,1.7,6.3,0c1.4-1.4,1.7-3.6,0.7-5.3l7.9-7.9
		v-43.6l6.6,6.6v23.6C492.7,354.9,491.1,356.9,491.1,359.2"/>
	<path class="st7" d="M485.8,237.5c0-2-1.4-3.7-3.2-4.2v-39l17.1-17.1h12.4c0.5,1.8,2.2,3.2,4.2,3.2c2.4,0,4.3-1.9,4.3-4.3
		c0-2.4-1.9-4.3-4.3-4.3c-2,0-3.7,1.4-4.2,3.2h-13.4l-18.5,18.5v40c-1.8,0.5-3.2,2.2-3.2,4.2c0,2.4,1.9,4.3,4.3,4.3
		C483.9,241.8,485.8,239.9,485.8,237.5"/>
	<path class="st7" d="M385,200.5c2.3,0,4.1,1.8,4.1,4.1c0,2.3-1.8,4.1-4.1,4.1s-4.1-1.8-4.1-4.1C380.9,202.4,382.7,200.5,385,200.5z
		 M446.4,188c2.3,0,4.1,1.8,4.1,4.1c0,2.3-1.8,4.1-4.1,4.1c-2.3,0-4.1-1.8-4.1-4.1C442.3,189.8,444.2,188,446.4,188z M385,210
		c2.5,0,4.6-1.8,5.2-4.1h34.7l20.3,20.3v17.2l-11.3-11.3h-15.7l-10,10c-1.8-1-4.1-0.8-5.7,0.8c-1.8,1.8-1.8,4.8,0,6.7
		c1.8,1.8,4.8,1.8,6.7,0c1.5-1.5,1.8-3.9,0.8-5.7l9.3-9.3h13.6l12.4,12.4v14.5l16,16v48.7c-2,0.6-3.5,2.4-3.5,4.5
		c0,2.6,2.1,4.7,4.7,4.7c2.6,0,4.7-2.1,4.7-4.7c0-2.2-1.5-4-3.5-4.5v-49.7l-16-16v-63.1c2.3-0.6,4.1-2.7,4.1-5.2
		c0-3-2.4-5.4-5.4-5.4c-3,0-5.4,2.4-5.4,5.4c0,2.5,1.8,4.6,4.1,5.2v25.4l-19.3-19.2h-35.7c-0.6-2.3-2.7-4.1-5.2-4.1
		c-3,0-5.4,2.4-5.4,5.4C379.6,207.6,382,210,385,210"/>
	<path class="st7" d="M480.7,291.8c-2.1,0-3.8-1.7-3.8-3.8s1.7-3.8,3.8-3.8c2.1,0,3.8,1.7,3.8,3.8S482.8,291.8,480.7,291.8z
		 M497.7,302.3l-7.1-7.1v-47.1l-11.1,11.1v24c-2.2,0.5-3.8,2.5-3.8,4.8c0,2.7,2.2,4.9,4.9,4.9c2.7,0,4.9-2.2,4.9-4.9
		c0-2.3-1.6-4.3-3.8-4.8v-23l6.5-6.5v42.5l7.7,7.7c-0.9,1.7-0.7,3.8,0.7,5.2c1.7,1.7,4.5,1.7,6.2,0c1.7-1.7,1.7-4.5,0-6.1
		C501.5,301.6,499.4,301.4,497.7,302.3"/>
</g>
</svg>
