<?xml version="1.0" encoding="utf-8"?>
<!-- Generator: Adobe Illustrator 26.0.2, SVG Export Plug-In . SVG Version: 6.00 Build 0)  -->
<svg version="1.1" id="Layer_1" xmlns="http://www.w3.org/2000/svg" xmlns:xlink="http://www.w3.org/1999/xlink" x="0px" y="0px"
	 viewBox="0 0 1080 1080" style="enable-background:new 0 0 1080 1080;" xml:space="preserve">
<style type="text/css">
	.st0{fill:#005F99;}
	.st1{fill:#FFC300;}
	.st2{fill:#484647;}
	.st3{fill:#009C7F;}
	.st4{fill:#EC6307;}
	.st5{fill:#6D41AB;}
	.st6{fill:#FFFFFF;}
	.st7{fill:#322F30;}
</style>
<g>
	<g>
		<g>
			<g transform="translate(212.750236, 668.078722)">
				<g>
					<path class="st0" d="M109.3,188c9.3,0,18-3,24.8-9.8l-7.3-7.3c-4.6,4.6-11.4,7.2-17.5,7.2c-17,0-24.3-12-24.3-24.1
						c0-12.2,7.5-24.5,24.3-24.5c6.1,0,12.3,2.2,17.1,6.8l7.1-6.8c-6.8-6.8-15.2-10-24.2-10c-23.7,0-34.8,17.3-34.8,34.6
						C74.5,171.5,85.4,188,109.3,188z"/>
				</g>
			</g>
		</g>
		<g>
			<g transform="translate(263.192271, 668.078722)">
				<g>
					<path class="st0" d="M98.6,187.5c2.9,0,5.9-2.1,5.9-6c0-4-3-5.9-5.9-5.9c-3,0-6,2-6,5.9C92.5,185.4,95.5,187.5,98.6,187.5z"/>
				</g>
			</g>
		</g>
		<g>
			<g transform="translate(281.091087, 668.078722)">
				<g>
					<path class="st0" d="M101.3,186.6h10.6v-22.8h14l20.1,22.8h12.4l-1.1-1.9l-19.7-22c13-1.8,17.9-11.2,17.9-20.6
						c0-11.1-8-21.6-23.3-21.6h-30.7V186.6z M111.9,154.2v-23.9h20.2c8.7,0,12.5,6.1,12.5,12.1c0,6.3-4,11.8-12.6,11.8H111.9z"/>
				</g>
			</g>
		</g>
		<g>
			<g transform="translate(332.806558, 668.078722)">
				<g>
					<path class="st0" d="M121.8,187.5c2.9,0,5.9-2.1,5.9-6c0-4-3-5.9-5.9-5.9c-3,0-6,2-6,5.9C115.7,185.4,118.7,187.5,121.8,187.5z
						"/>
				</g>
			</g>
		</g>
		<g>
			<g transform="translate(350.705379, 668.078722)">
				<g>
					<path class="st0" d="M124.5,186.6h48.8v-10.4h-38.2v-17.7h36.4v-9.8h-36.4v-17.8H173v-10.3h-48.5V186.6z"/>
				</g>
			</g>
		</g>
		<g>
			<g transform="translate(398.176088, 668.078722)">
				<g>
					<path class="st0" d="M143.5,187.5c2.9,0,5.9-2.1,5.9-6c0-4-3-5.9-5.9-5.9c-3,0-6,2-6,5.9C137.5,185.4,140.5,187.5,143.5,187.5z
						"/>
				</g>
			</g>
		</g>
		<g>
			<g transform="translate(416.07491, 668.078722)">
				<g>
					<path class="st0" d="M138.9,186.6h11.2l6.2-13.9h35.8l6.3,13.9h11.2l-29.6-66h-11.5L138.9,186.6z M160.3,163.1l14-31.4l14,31.4
						H160.3z"/>
				</g>
			</g>
		</g>
		<g>
			<g transform="translate(471.115449, 668.078722)">
				<g>
					<path class="st0" d="M167.9,187.5c2.9,0,5.9-2.1,5.9-6c0-4-3-5.9-5.9-5.9c-3,0-6,2-6,5.9C161.8,185.4,164.8,187.5,167.9,187.5z
						"/>
				</g>
			</g>
		</g>
		<g>
			<g transform="translate(489.01426, 668.078722)">
				<g>
					<path class="st0" d="M185.6,186.6h10.7v-56.5h21.6v-9.5h-54v9.5h21.7V186.6z"/>
				</g>
			</g>
		</g>
		<g>
			<g transform="translate(532.593932, 668.078722)">
				<g>
					<path class="st0" d="M188.4,187.5c2.9,0,5.9-2.1,5.9-6c0-4-3-5.9-5.9-5.9c-3,0-6,2-6,5.9C182.3,185.4,185.3,187.5,188.4,187.5z
						"/>
				</g>
			</g>
		</g>
		<g>
			<g transform="translate(550.492742, 668.078722)">
				<g>
					<path class="st0" d="M191.1,186.6h48.8v-10.4h-38.2v-17.7h36.4v-9.8h-36.4v-17.8h37.9v-10.3h-48.5V186.6z"/>
				</g>
			</g>
		</g>
	</g>
	<g>
		<g transform="translate(314.395103, 715.979216)">
		</g>
	</g>
	<g>
		<g transform="translate(466.240157, 715.979216)">
		</g>
	</g>
	<g>
		<g transform="translate(526.60828, 715.979216)">
		</g>
	</g>
	<g>
		<g>
			<g transform="translate(89.909274, 715.979216)">
				<g>
					<path class="st0" d="M33.3,202.6h5.1v-31.9h-5.1V202.6z"/>
				</g>
			</g>
		</g>
		<g>
			<g transform="translate(100.061982, 715.979216)">
				<g>
					<path class="st0" d="M36.7,202.6h5.2v-22.5l18.1,22.5h3.9v-31.9h-5.1v22.7l-18.1-22.7h-3.9V202.6z"/>
				</g>
			</g>
		</g>
		<g>
			<g transform="translate(126.759596, 715.979216)">
				<g>
					<path class="st0" d="M60.4,203.2c4.5,0,8.7-1.5,12-4.7l-3.5-3.5c-2.2,2.2-5.5,3.5-8.5,3.5c-8.2,0-11.8-5.8-11.8-11.6
						c0-5.9,3.6-11.8,11.8-11.8c3,0,5.9,1,8.2,3.3l3.4-3.3c-3.3-3.3-7.3-4.8-11.7-4.8c-11.4,0-16.8,8.3-16.8,16.7
						C43.6,195.3,48.9,203.2,60.4,203.2z"/>
				</g>
			</g>
		</g>
		<g>
			<g transform="translate(151.132724, 715.979216)">
				<g>
					<path class="st0" d="M66.8,203.2c7.4,0,13.6-4.4,13.6-13.8v-18.7h-5.1v18.7c0,5.9-3.5,9.1-8.3,9.1c-5,0-8.6-3.2-8.6-9.1v-18.7
						h-5.1v18.7C53.3,198.5,59.4,203.2,66.8,203.2z"/>
				</g>
			</g>
		</g>
		<g>
			<g transform="translate(177.180849, 715.979216)">
				<g>
					<path class="st0" d="M62.4,202.6H77c6.3,0,11.9-2.1,11.9-9.1c0-2.4-1.6-6.2-5.4-7.3c3.1-1.2,4.4-3.6,4.4-6.3
						c0-6.4-4.8-9.1-10.8-9.1H62.4V202.6z M67.4,183.9v-8.6H77c3.8,0,5.8,2.4,5.8,4.6c0,2.6-1.9,4-5.7,4H67.4z M67.4,197.9v-9.4h9.6
						c2.9,0,6.7,1.6,6.7,5c0,3.5-4,4.4-6.8,4.4H67.4z"/>
				</g>
			</g>
		</g>
		<g>
			<g transform="translate(201.998357, 715.979216)">
				<g>
					<path class="st0" d="M67.1,202.6h5.4l3-6.7h17.3l3.1,6.7h5.4l-14.3-31.9h-5.6L67.1,202.6z M77.4,191.3l6.7-15.2l6.8,15.2H77.4z
						"/>
				</g>
			</g>
		</g>
		<g>
			<g transform="translate(228.593418, 715.979216)">
				<g>
					<path class="st0" d="M86.8,202.6h5.2v-27.3h10.4v-4.6H76.3v4.6h10.5V202.6z"/>
				</g>
			</g>
		</g>
		<g>
			<g transform="translate(249.650717, 715.979216)">
				<g>
					<path class="st0" d="M86.5,202.6h5.1v-31.9h-5.1V202.6z"/>
				</g>
			</g>
		</g>
		<g>
			<g transform="translate(259.803423, 715.979216)">
				<g>
					<path class="st0" d="M104.3,203.2c11.1,0,16.3-7.9,16.3-16.5c0-8.6-5.3-16.6-16.2-16.6c-9.6,0-16.4,7-16.4,16.7
						C88,195.2,93.2,203.2,104.3,203.2z M104.3,198.5c-7.9,0-11.3-6-11.3-11.7c0-6.9,3.9-12.1,11.3-12.1c7.8,0,11.2,6.2,11.2,12.1
						C115.5,192.9,112.2,198.5,104.3,198.5z"/>
				</g>
			</g>
		</g>
		<g>
			<g transform="translate(287.69748, 715.979216)">
				<g>
					<path class="st0" d="M99.2,202.6h5.2v-22.5l18.1,22.5h3.9v-31.9h-5.1v22.7l-18.1-22.7h-3.9V202.6z"/>
				</g>
			</g>
		</g>
		<g>
			<g transform="translate(323.248847, 715.979216)">
				<g>
					<path class="st0" d="M125.9,203.2c4.5,0,8.7-1.5,12-4.7l-3.5-3.5c-2.2,2.2-5.5,3.5-8.5,3.5c-8.2,0-11.8-5.8-11.8-11.6
						c0-5.9,3.6-11.8,11.8-11.8c3,0,5.9,1,8.2,3.3l3.4-3.3c-3.3-3.3-7.3-4.8-11.7-4.8c-11.4,0-16.8,8.3-16.8,16.7
						C109.1,195.3,114.4,203.2,125.9,203.2z"/>
				</g>
			</g>
		</g>
		<g>
			<g transform="translate(347.621969, 715.979216)">
				<g>
					<path class="st0" d="M119.2,202.6h23.6v-5h-18.5V189h17.6v-4.7h-17.6v-8.6h18.3v-5h-23.4V202.6z"/>
				</g>
			</g>
		</g>
		<g>
			<g transform="translate(370.559384, 715.979216)">
				<g>
					<path class="st0" d="M126.8,202.6h5.2v-22.5l18.1,22.5h3.9v-31.9h-5.1v22.7l-18.1-22.7h-3.9V202.6z"/>
				</g>
			</g>
		</g>
		<g>
			<g transform="translate(397.257006, 715.979216)">
				<g>
					<path class="st0" d="M143,202.6h5.2v-27.3h10.4v-4.6h-26.1v4.6H143V202.6z"/>
				</g>
			</g>
		</g>
		<g>
			<g transform="translate(418.314317, 715.979216)">
				<g>
					<path class="st0" d="M142.8,202.6h23.6v-5h-18.5V189h17.6v-4.7h-17.6v-8.6h18.3v-5h-23.4V202.6z"/>
				</g>
			</g>
		</g>
		<g>
			<g transform="translate(441.251732, 715.979216)">
				<g>
					<path class="st0" d="M150.4,202.6h5.1v-11h6.7l9.7,11h6l-0.5-0.9l-9.5-10.6c6.3-0.9,8.7-5.4,8.7-9.9c0-5.4-3.9-10.4-11.3-10.4
						h-14.9V202.6z M155.5,186.9v-11.5h9.8c4.2,0,6.1,3,6.1,5.8c0,3.1-1.9,5.7-6.1,5.7H155.5z"/>
				</g>
			</g>
		</g>
		<g>
			<g transform="translate(475.092852, 715.979216)">
				<g>
					<path class="st0" d="M161.7,202.6h5.1v-31.9h-5.1V202.6z"/>
				</g>
			</g>
		</g>
		<g>
			<g transform="translate(485.24556, 715.979216)">
				<g>
					<path class="st0" d="M165.1,202.6h5.1v-31.9h-5.1V202.6z"/>
				</g>
			</g>
		</g>
		<g>
			<g transform="translate(495.398269, 715.979216)">
				<g>
					<path class="st0" d="M168.5,202.6h5.1v-31.9h-5.1V202.6z"/>
				</g>
			</g>
		</g>
		<g>
			<g transform="translate(505.550977, 715.979216)">
				<g>
					<path class="st0" d="M179.1,202.6h5.2v-27.3h10.4v-4.6h-26.1v4.6h10.5V202.6z"/>
				</g>
			</g>
		</g>
		<g>
			<g transform="translate(535.462012, 715.979216)">
				<g>
					<path class="st0" d="M181.8,202.6h21.9v-4.7h-16.8v-27.2h-5.1V202.6z"/>
				</g>
			</g>
		</g>
		<g>
			<g transform="translate(555.869826, 715.979216)">
				<g>
					<path class="st0" d="M201.7,203.2c7.4,0,13.6-4.4,13.6-13.8v-18.7h-5.1v18.7c0,5.9-3.5,9.1-8.3,9.1c-5,0-8.6-3.2-8.6-9.1v-18.7
						h-5.1v18.7C188.2,198.5,194.3,203.2,201.7,203.2z"/>
				</g>
			</g>
		</g>
		<g>
			<g transform="translate(581.917951, 715.979216)">
				<g>
					<path class="st0" d="M212.2,203.2c4.5,0,8.7-1.5,12-4.7l-3.5-3.5c-2.2,2.2-5.5,3.5-8.5,3.5c-8.2,0-11.8-5.8-11.8-11.6
						c0-5.9,3.6-11.8,11.8-11.8c3,0,5.9,1,8.2,3.3l3.4-3.3c-3.3-3.3-7.3-4.8-11.7-4.8c-11.4,0-16.8,8.3-16.8,16.7
						C195.3,195.3,200.6,203.2,212.2,203.2z"/>
				</g>
			</g>
		</g>
		<g>
			<g transform="translate(606.291073, 715.979216)">
				<g>
					<path class="st0" d="M205.4,202.6h5.1v-14.5l14.2,14.5h6.4v-0.3l-15.9-16.2l14.6-15.2v-0.2h-6.3l-13,13.8v-13.8h-5.1V202.6z"/>
				</g>
			</g>
		</g>
		<g>
			<g transform="translate(628.784091, 715.979216)">
				<g>
					<path class="st0" d="M212.9,202.6h5.2v-22.5l18.1,22.5h3.9v-31.9h-5.1v22.7l-18.1-22.7h-3.9V202.6z"/>
				</g>
			</g>
		</g>
		<g>
			<g transform="translate(655.481702, 715.979216)">
				<g>
					<path class="st0" d="M236.2,203.2c11.1,0,16.3-7.9,16.3-16.5c0-8.6-5.3-16.6-16.2-16.6c-9.6,0-16.4,7-16.4,16.7
						C219.9,195.2,225.1,203.2,236.2,203.2z M236.2,198.5c-7.9,0-11.3-6-11.3-11.7c0-6.9,3.9-12.1,11.3-12.1
						c7.8,0,11.2,6.2,11.2,12.1C247.4,192.9,244.1,198.5,236.2,198.5z"/>
				</g>
			</g>
		</g>
		<g>
			<g transform="translate(683.375747, 715.979216)">
				<g>
					<path class="st0" d="M239.4,202.6h4.5l4.2-11.2l3.5-10.7l3.5,10.7l4.2,11.3h4.5l11.4-31.9h-5.7l-7.9,24.5l-8.4-24.5h-3.3
						l-8.3,24.5l-8.1-24.5h-5.7L239.4,202.6z"/>
				</g>
			</g>
		</g>
	</g>
	<g>
		<g>
			<path class="st0" d="M368.8,399.2c-3.1,1-4.6,6.5-5.8,11.2c-0.6,2.4-0.7,3.5-1.1,5.7c-1,5.6-2.4,9.5-4.1,14
				c-3.5,9.7-8.1,18.7-10.6,24.2c-1.5,3.3-7.7,16.4-10.2,30.2c-2.5,13.9-1.1,24.6,1.4,43.2c2.5,18.3,3.9,28.5,8.1,41
				c14.1,42.2,45.3,66.8,54.3,73.7c14.3,10.9,12.3,5.6,38,22.8c31.2,20.8,47,31.6,57.1,51.2c7,13.7,14.2,37.3,14.2,37.2
				c0,0,31.8-38.9,27.8-76.5c-3-28.7-26.7-54.6-34.3-62.9c-4.5-4.9-8.7-8.7-9.1-9.1c-15.3-14-24.2-15.7-46.5-31.3
				c-8.4-5.9-12.6-8.8-17.1-13.3c-9-8.9-14.1-17.8-20.6-29.3c-9.6-17.1-8.3-19.3-15.6-28.4c-2.5-3.1-15.9-19.9-24.4-16.6
				c-2.6,1-3.9,3.6-4.3,4.6c-3.7,7.8,3.3,15.7,8.7,31.7c3.4,10.2,1.5,9.9,4.5,19.3c7.4,23.3,22.7,35.7,21.8,36.4
				c-0.9,0.8-19.9-12.2-28.6-34.7c-2.8-7.1-2-8.8-6.4-20.2c-4.8-12.4-7.6-15.6-8.4-24.3c0-0.2-0.1-0.5-0.1-0.9
				c-0.2-2.6-1.1-14.2,4.7-18.2c2.8-2,5.1-0.6,7.4-3.1c1.8-2,1.9-4.5,2-5.5c1.1-15.7,19.5-51.8,5.4-68
				C376.6,403.1,372.2,398.2,368.8,399.2z"/>
			<path class="st0" d="M516.2,452.9"/>
			<path class="st0" d="M390.9,415.4c-2.5,1.2-3.1,4.7-3.5,6.6c-0.4,2.1-6.8,35.2-12.9,50.1c-0.4,0.9-1.7,3.3-0.8,5.5
				c0.9,2,2.7,1.5,6.4,4c2.8,1.9,4.1,3.8,8.6,6.6c0.7,0.4,1.4,0.9,2.2,0.7c2.3-0.3,3.3-4.5,3.9-6.3c3.8-11.6,5.5-23.1,5.5-23.1
				c1.3-8.7,5-28.8,2.8-37.1c-0.1-0.3-0.3-1.2-1-2.3C399.8,416.3,394.2,413.8,390.9,415.4z"/>
			<path class="st0" d="M413.8,433.7c-2.5,1.2-3.1,4.7-3.5,6.6c-3.4,18.2-11,48.8-13.3,54c-0.1,0.2-0.4,0.8-0.4,1.6
				c-0.3,2.9,2.5,4.6,5.7,8.4c0.3,0.3,0,0,6,9.2c2.9,4.4,3.3,5,3.9,5c1.4-0.1,2.8-5.8,5.5-17.4c2.4-10.4,3.2-14,5.5-23.1
				c0,0,0,0,0,0c1.3-8.7,5-28.8,2.8-37.1c-0.1-0.3-0.3-1.2-1-2.3C422.7,434.5,417,432.1,413.8,433.7z"/>
			<path class="st0" d="M430.8,471.6c-2.6,1.2-3.2,5.1-3.5,6.6c-2.5,15.4-7.3,30.4-10.5,45.7c-0.1,0.4-0.2,0.9-0.3,1.7
				c-0.5,5.3,2.7,8.9,7,15.7c4.8,7.5,5.1,9.6,6.3,9.4c2.1-0.3,1.2-7.7,4-20.7c1.6-7.2,2.4-7.4,4.8-17.8c1.8-7.7,2.7-11.5,2.9-15.3
				c0.7-10.4-1.7-23.4-7.4-25.3C433.9,471.4,432.3,470.9,430.8,471.6z"/>
		</g>
		<g>
			<path class="st1" d="M716.8,399.2c3.1,1,4.6,6.5,5.8,11.2c0.6,2.4,0.7,3.5,1.1,5.7c1,5.6,2.4,9.5,4.1,14
				c3.5,9.7,8.1,18.7,10.6,24.2c1.5,3.3,7.7,16.4,10.2,30.2c2.5,13.9,1.1,24.6-1.4,43.2c-2.5,18.3-3.9,28.5-8.1,41
				c-14.1,42.2-45.3,66.8-54.3,73.7c-14.3,10.9-12.3,5.6-38,22.8c-31.2,20.8-47,31.6-57.1,51.2c-7,13.7-14.2,37.3-14.2,37.2
				c0,0-31.8-38.9-27.8-76.5c3-28.7,26.7-54.6,34.3-62.9c4.5-4.9,8.7-8.7,9.1-9.1c15.3-14,24.2-15.7,46.5-31.3
				c8.4-5.9,12.6-8.8,17.1-13.3c9-8.9,14.1-17.8,20.6-29.3c9.6-17.1,8.3-19.3,15.6-28.4c2.5-3.1,15.9-19.9,24.4-16.6
				c2.6,1,3.9,3.6,4.3,4.6c3.7,7.8-3.3,15.7-8.7,31.7c-3.4,10.2-1.5,9.9-4.5,19.3c-7.4,23.3-22.7,35.7-21.8,36.4
				c0.9,0.8,19.9-12.2,28.6-34.7c2.8-7.1,2-8.8,6.4-20.2c4.8-12.4,7.6-15.6,8.4-24.3c0-0.2,0.1-0.5,0.1-0.9
				c0.2-2.6,1.1-14.2-4.7-18.2c-2.8-2-5.1-0.6-7.4-3.1c-1.8-2-1.9-4.5-2-5.5c-1.1-15.7-19.5-51.8-5.4-68
				C709.1,403.1,713.5,398.2,716.8,399.2z"/>
			<path class="st1" d="M569.4,452.9"/>
			<path class="st1" d="M694.7,415.4c2.5,1.2,3.1,4.7,3.5,6.6c0.4,2.1,6.8,35.2,12.9,50.1c0.4,0.9,1.7,3.3,0.8,5.5
				c-0.9,2-2.7,1.5-6.4,4c-2.8,1.9-4.1,3.8-8.6,6.6c-0.7,0.4-1.4,0.9-2.2,0.7c-2.3-0.3-3.3-4.5-3.9-6.3c-3.8-11.6-5.5-23.1-5.5-23.1
				c-1.3-8.7-5-28.8-2.8-37.1c0.1-0.3,0.3-1.2,1-2.3C685.8,416.3,691.4,413.8,694.7,415.4z"/>
			<path class="st1" d="M671.8,433.7c2.5,1.2,3.1,4.7,3.5,6.6c3.4,18.2,11,48.8,13.3,54c0.1,0.2,0.4,0.8,0.4,1.6
				c0.3,2.9-2.5,4.6-5.7,8.4c-0.3,0.3,0,0-6,9.2c-2.9,4.4-3.3,5-3.9,5c-1.4-0.1-2.8-5.8-5.5-17.4c-2.4-10.4-3.2-14-5.5-23.1
				c0,0,0,0,0,0c-1.3-8.7-5-28.8-2.8-37.1c0.1-0.3,0.3-1.2,1-2.3C662.9,434.5,668.6,432.1,671.8,433.7z"/>
			<path class="st1" d="M654.8,471.6c2.6,1.2,3.2,5.1,3.5,6.6c2.5,15.4,7.3,30.4,10.5,45.7c0.1,0.4,0.2,0.9,0.3,1.7
				c0.5,5.3-2.7,8.9-7,15.7c-4.8,7.5-5.1,9.6-6.3,9.4c-2.1-0.3-1.2-7.7-4-20.7c-1.6-7.2-2.4-7.4-4.8-17.8
				c-1.8-7.7-2.7-11.5-2.9-15.3c-0.7-10.4,1.7-23.4,7.4-25.3C651.7,471.4,653.3,470.9,654.8,471.6z"/>
		</g>
		<path class="st2" d="M619.2,476.5H468.3c-6.8,0-12.3-5.5-12.3-12.3s5.5-12.3,12.3-12.3h150.9c6.8,0,12.3,5.5,12.3,12.3
			S626,476.5,619.2,476.5z"/>
		<path class="st2" d="M619.2,516.8H468.3c-6.8,0-12.3-5.5-12.3-12.3l0,0c0-6.8,5.5-12.3,12.3-12.3h150.9c6.8,0,12.3,5.5,12.3,12.3
			l0,0C631.5,511.3,626,516.8,619.2,516.8z"/>
		<path class="st2" d="M604.9,532.5c-41.6,0-83.2,0-124.9,0c1.4,3.3,3.6,7.8,7,12.7c3.2,4.5,22.5,32.2,56.5,32.2
			c25.1,0,46.8-15.1,56.7-33.3C602.7,539.6,604,535.5,604.9,532.5z"/>
		<path class="st0" d="M540,311.8c2.3-1,3.6-2.4,4.3-3.2c2.6-3.2,2.8-7.5,3.1-11.2c0.2-3.8-0.3-4.2,0.4-5.4c1.3-2.1,4-2.2,11-2.9
			c11-1.2,11.1-1.6,12.4-1c4.9,2.6,2.7,9.1,8.5,13.3c0.3,0.2,4.8,3.4,10.1,2.5c6.7-1.2,7.7-7.7,13-7.7c1.5,0,4,1.7,8.9,5
			c5.4,3.7,8.1,5.5,8.6,6.6c2.3,5.5-4.3,10.7-2.1,17.8c0.6,2,1.8,3.7,1.9,3.8c0.5,0.7,2,2.7,5.2,4.2c6.1,3,9.3-0.1,12.6,2.5
			c1.8,1.4,2.4,4.6,3.5,10.9c1.3,7.3,2,9.9,0.4,11.7c-0.2,0.2-0.9,0.6-2.4,1.5c-2.7,1.5-5.7,3.1-9.1,4.9c-1.7,0.9-1.9,1-2.2,1.3
			c-0.7,0.6-1.8,2.1-1.9,7c-0.1,3.1-0.1,5.5,0.8,8.4c2,6,6,6.4,5.9,10c0,1.8-1,2.1-5.7,8.2c-5.2,6.7-4.8,7.2-6.3,7.8
			c-5.1,1.9-9-5.2-15.1-3.3c-0.4,0.1-2.5,1.7-6.9,5c-2.5,1.8-3.7,2.8-4.5,4.6c-0.3,0.8-0.4,1.3-0.8,4.6c-0.7,6.4-0.6,6.5-1,7
			c-1.3,1.9-3.3,1.2-10.8,2.5c-6.6,1.1-7.5,2-9.1,1.1c-1.9-1.1-1.3-2.8-4.8-9.3c-1.6-3-2.5-4-3.8-4.7c-1-0.6-1.4-0.4-5.1-1.1
			c-4.2-0.8-5-1.2-5.8-1.2c0,0-0.3,0-0.6,0.1c-3,0.5-6.4,2.9-6.4,2.9c-1.9,1.3-4,2.9-6.3,4.7C540,384.5,540,348.2,540,311.8z"/>
		<path class="st3" d="M540.6,247.7c0,12.8,0,25.7,0,38.6c0,2.8,0,6.1,0,8.9c0,0,1.4,0,1.7,0c1.6-0.1,3.1-1.4,3.6-1.8
			c3.3-2.9,0.8-9.8,4.8-13.6c1.1-1,2.8-1.7,6.1-3.1c1.9-0.8,2.9-1.2,3.9-1.2c2.4,0,3.9,1.7,7,4.6c4.9,4.7,7.4,7.1,9.1,7.3
			c2.2,0.3,2.8-0.9,9.2-4.3c8-4.3,9.2-3.5,10.2-5.4c0.9-1.7-0.6-2.4-2-9.7c-0.8-4.4-0.7-5.7-0.2-6.8c0.6-1.4,1.9-2.4,4.4-4.5
			c3.3-2.7,5-4,7.2-4.3c1.4-0.2,2.9,0.2,5.7,0.9c5.9,1.6,6.5,2.9,8.6,2.6c2.1-0.3,3.8-2.5,7.2-7c4.1-5.5,6.2-8.2,5.8-10.2
			c-0.3-2-1.6-2-7.4-9.4c-1.1-1.4-1.7-2.2-2-3.6c-0.3-1.1-0.3-2.4,1.1-7.1c1.1-3.5,1.6-5.3,2.3-6.1c0.9-1.1,2.1-1.9,7.7-3.6
			c7.7-2.3,8.5-1.8,9.6-3.1c1.4-1.6,0.6-2.9,0.9-11.2c0.2-6.7,0.7-7.6-0.3-9c-1.4-2-3-1.4-10.3-4.3c-5.8-2.3-7-3.6-7.5-4.9
			c-0.4-1.2,0.1-1.4,0.1-5c0-4.2-0.7-4.8-0.2-6.8c0.3-1.3,0.8-2.2,3.7-5.4c5.8-6.5,6.7-6.3,7.1-8.1c0.4-1.8-1.1-4.6-4.1-10
			c-2.1-3.8-3.2-5.7-4.5-6.4c-2.2-1.2-3.6-0.1-10.7,0.6c-4.6,0.5-6.9,0.7-9-0.2c-4-1.7-5.7-5.5-5.8-5.9c-0.5-1.3-0.9-2.8-0.6-6.6
			c0.6-8.8,3.3-9.9,2.2-13.3c-0.6-2-3.5-4-9.2-8.2c-3.3-2.4-5-3.6-5.9-3.7c-6.6-0.7-9.9,11.2-17,10.6c-1.6-0.1-3.2-0.8-6.3-2.2
			c-2.9-1.3-4.3-1.9-5.5-3c-1.3-1.3-1.7-2.5-3.6-9.7c-1.7-6.4-1.9-7.3-3-8.1c-1.5-1.1-3.7-1-8.3-0.9c-2.5,0-4.5,0.4-5.4,0.2
			c0,0-0.2-0.1-0.4,0c-0.6,0.3-0.5,1.6-0.5,2.1c0,0,0.3,5.3,0.4,10c0,0.2,0,0.6,0,1.4c0.1,9.9-0.1,11.8,0.1,17.1
			c0,1,0.4,14.8-0.1,15.9c0,0-0.1,0.1,0,0.3c0.1,0.4,1.3,0.3,2.7,0.3c0.8,0,1.7,0,2.5,0c2.2-0.1,44.4,12,49.9,49.9
			c2.8,19.4-5.3,37.2-15.3,48.2c-3.7,4.1-11,12-22.4,15.2C557.9,244.5,555.5,245.1,540.6,247.7z"/>
		<path class="st4" d="M616,279.4c-1.8,1.2-2.1,3.5-2.7,8.2c-0.4,3.5-0.6,5.2,0.3,6.8c0.6,0.9,1,1.1,4.9,3.5
			c4.5,2.8,5.4,3.6,5.8,4.8c0.3,0.7,0.2,1.3-0.2,3.9c-1.3,7.4-2.1,8.5-1.4,10.5c0.3,0.7,1.5,1.9,4,4.3c4.9,4.8,6.4,5,7,5
			c1.7,0.1,1.9-0.8,4.8-1.6c1.9-0.5,4.8-1.3,7.1-0.5c4.5,1.6,3.1,8.2,7.8,10.4c0.7,0.3,3,0.3,7.4,0.1c6.5-0.2,7.5-0.8,8-1.2
			c2.2-1.8,1-3.8,3.6-6.5c0.5-0.5,3-3,6.2-2.9c2.4,0.1,2.8,1.6,5.2,1.8c3,0.4,5.5-1.6,7.6-3.2c2.1-1.6,6.2-4.8,6-8.8
			c-0.1-2.5-1.9-2.9-2.4-6.5c-0.2-1.3-0.5-3.9,0.8-6c2.1-3.2,6.2-1.3,8.8-4.3c1.6-1.8,1.5-4.5,1.4-9.8c-0.1-4.1-0.1-6.2-1.2-7.7
			c-2.8-4-8.6-1.9-10.1-5c-1.6-3.4,4.8-7.2,3.6-12.8c-0.5-2.3-2.1-3.8-5.3-6.8c-3.2-2.9-4.9-4.6-7.3-4.6c-3.4,0-4.2,3.3-8.5,3.4
			c-0.7,0-2.9,0-4.7-1.4c-1.3-1-2-2.4-2.5-3.7c-0.9-2-0.6-2.5-1.2-3.5c-1.7-3-7-3.2-10.2-3.2c-4-0.1-5.9-0.1-7.6,1.2
			c-2.2,1.7-3.9,5.7-4.7,7.7c-0.2,0.5-0.7,1.6-1.7,2.5c-1.2,1-2.5,1.3-2.9,1.3c-4.1,0.8-6.4-3.7-10.1-3.1c-1.1,0.2-2.1,1.2-4.2,3.2
			c-3.3,3.2-6.6,6.4-5.9,9.4c0.4,1.7,1.8,1.8,2.3,4.3c0.2,0.9,0.1,1.8,0,3.7c-0.1,1.9-0.3,2.5-0.5,2.8c-0.3,0.6-0.8,1.3-2.1,2.2
			C618.8,279.1,617.5,278.3,616,279.4z"/>
		<path class="st5" d="M651.8,207.1c-1,0.7-1.2,2-1.5,4.7c-0.2,2-0.4,2.9,0.2,3.8c0.3,0.5,0.6,0.6,2.8,2c2.6,1.6,3,2.1,3.3,2.7
			c0.1,0.4,0.1,0.7-0.1,2.2c-0.7,4.2-1.2,4.8-0.8,5.9c0.1,0.4,0.8,1.1,2.2,2.5c2.8,2.7,3.6,2.8,4,2.8c1,0,1.1-0.5,2.7-0.9
			c1.1-0.3,2.7-0.7,4-0.3c2.5,0.9,1.7,4.7,4.4,5.9c0.4,0.2,1.7,0.2,4.2,0.1c3.7-0.1,4.2-0.5,4.5-0.7c1.3-1,0.6-2.2,2.1-3.7
			c0.3-0.3,1.7-1.7,3.5-1.6c1.4,0,1.6,0.9,3,1c1.7,0.2,3.1-0.9,4.3-1.8c1.2-0.9,3.5-2.7,3.4-5c-0.1-1.4-1.1-1.6-1.3-3.7
			c-0.1-0.7-0.3-2.2,0.5-3.4c1.2-1.8,3.5-0.7,5-2.5c0.9-1,0.9-2.5,0.8-5.5c0-2.3-0.1-3.5-0.7-4.4c-1.6-2.3-4.9-1.1-5.7-2.8
			c-0.9-1.9,2.7-4.1,2-7.3c-0.3-1.3-1.2-2.2-3-3.9c-1.8-1.7-2.8-2.6-4.1-2.6c-1.9,0-2.4,1.9-4.8,1.9c-0.4,0-1.6,0-2.7-0.8
			c-0.7-0.6-1.1-1.4-1.4-2.1c-0.5-1.2-0.3-1.4-0.7-2c-1-1.7-4-1.8-5.8-1.8c-2.2-0.1-3.4-0.1-4.3,0.7c-1.2,1-2.2,3.3-2.7,4.3
			c-0.1,0.3-0.4,0.9-1,1.4c-0.7,0.6-1.4,0.7-1.6,0.7c-2.3,0.4-3.7-2.1-5.7-1.8c-0.6,0.1-1.2,0.7-2.4,1.8c-1.8,1.8-3.7,3.6-3.3,5.3
			c0.2,1,1,1,1.3,2.4c0.1,0.5,0.1,1,0,2.1c-0.1,1.1-0.2,1.4-0.3,1.6c-0.2,0.3-0.5,0.8-1.2,1.2C653.4,206.9,652.7,206.5,651.8,207.1z
			"/>
		<circle class="st6" cx="570.9" cy="359.5" r="25.3"/>
		<circle class="st6" cx="659.8" cy="288.9" r="16.7"/>
		<circle class="st6" cx="676.5" cy="212.3" r="10.4"/>
		<circle class="st6" cx="538.2" cy="190" r="58.3"/>
		<path d="M558.3,428.3"/>
		<path d="M661.5,194.6"/>
		<path class="st6" d="M525.1,359.7c0.2,23,0.3,46,0.5,68.9L525.1,359.7z"/>
		<path class="st6" d="M379.5,247.2c0-0.9,0-1.7,0.1-2.6"/>
		<path class="st6" d="M379.5,250.9c0-1.3,0-2.5,0-3.7"/>
		<path class="st6" d="M541.8,417.8c-1.3,0-2.6,0-3.9,0c-6.4,0-12.8-0.4-19-1.2"/>
		<path class="st1" d="M539.1,84.1c-88.7,3.3-159.6,77.7-159.6,169.1c0,92.1,72,166.9,161.7,169.1"/>
		<rect x="463.7" y="129.1" class="st1" width="77.1" height="299.6"/>
		<rect x="538.2" y="84.1" class="st1" width="2.6" height="299.6"/>
		<path class="st7" d="M523.1,240.5c1.6,0,2.9,1.3,2.9,2.9c0,1.6-1.3,2.9-2.9,2.9s-2.9-1.3-2.9-2.9
			C520.2,241.9,521.5,240.5,523.1,240.5z M504,317.8l20-20v-50.7c1.7-0.4,2.9-1.9,2.9-3.7c0-2.1-1.7-3.8-3.8-3.8
			c-2.1,0-3.8,1.7-3.8,3.8c0,1.8,1.2,3.3,2.9,3.7v49.9l-20,20V351l13.2,10.3v67.4h1.8v-68.3L504,350.1V317.8"/>
		<path class="st7" d="M447,362.4c-1.1-1.1-1.1-2.9,0-3.9c1.1-1.1,2.9-1.1,3.9,0c1.1,1.1,1.1,2.9,0,3.9
			C449.9,363.5,448.1,363.5,447,362.4z M453.1,324c1.5,0,2.8,1.3,2.8,2.8c0,1.5-1.3,2.8-2.8,2.8s-2.8-1.3-2.8-2.8
			C450.3,325.3,451.5,324,453.1,324z M488.3,360.2l-12.5-12.5h-14.5l-7.3-7.3v-10c1.6-0.4,2.8-1.8,2.8-3.5c0-2-1.6-3.7-3.7-3.7
			s-3.6,1.6-3.6,3.7c0,1.7,1.2,3.1,2.8,3.5v10.7l7.5,7.5l-8.8,8.8c-1.4-0.9-3.3-0.7-4.5,0.5c-1.4,1.4-1.4,3.7,0,5.2
			c1.4,1.4,3.7,1.4,5.2,0c-0.4,0.4-0.7,0.7,0,0c0.2-0.2,0.3-0.3,0.3-0.3c-0.1,0.1-0.2,0.2-0.3,0.3c1.2-1.2,1.4-3.1,0.5-4.5l9.2-9.2
			H475l11.5,11.5v23.4l16.8,16.8v12.6h1.7v-13.3l-16.8-16.8V360.2"/>
		<rect x="503.4" y="411.9" class="st7" width="1.7" height="16.8"/>
		<path class="st7" d="M477.3,306.4c1.6,0,2.9,1.3,2.9,2.9c0,1.6-1.3,2.9-2.9,2.9c-1.6,0-2.9-1.3-2.9-2.9
			C474.4,307.7,475.7,306.4,477.3,306.4z M488.3,323.3c-1.8,0-3.3,1.5-3.3,3.3c0,1.5,1,2.8,2.4,3.2V345l-9.2-9.2v-22.9
			c1.7-0.4,2.9-1.9,2.9-3.7c0-2.1-1.7-3.8-3.8-3.8c-2.1,0-3.8,1.7-3.8,3.8c0,1.8,1.2,3.3,2.9,3.7v23.7l12.7,12.7v-19.4
			c1.4-0.4,2.4-1.7,2.4-3.2C491.6,324.8,490.1,323.3,488.3,323.3"/>
		<path class="st7" d="M409.9,241c1.6,0,3,1.3,3,3c0,1.6-1.3,3-3,3c-1.6,0-3-1.3-3-3C406.9,242.4,408.3,241,409.9,241z M454.6,231.9
			c1.6,0,3,1.3,3,3c0,1.6-1.3,3-3,3c-1.6,0-3-1.3-3-3C451.6,233.2,452.9,231.9,454.6,231.9z M409.9,247.9c1.8,0,3.4-1.3,3.8-3h25.2
			l14.8,14.8v12.5l-8.2-8.2H434l-7.3,7.3c-1.3-0.7-3-0.6-4.1,0.5c-1.3,1.3-1.3,3.5,0,4.9c1.3,1.3,3.5,1.3,4.9,0
			c1.1-1.1,1.3-2.8,0.5-4.1l6.8-6.8h9.9l9,9v10.5l11.6,11.6v35.4c-1.5,0.4-2.5,1.7-2.5,3.3c0,1.9,1.5,3.4,3.4,3.4
			c1.9,0,3.4-1.5,3.4-3.4c0-1.6-1.1-2.9-2.5-3.3v-36.2l-11.7-11.6v-45.9c1.7-0.4,3-1.9,3-3.8c0-2.1-1.7-3.9-3.9-3.9
			c-2.1,0-3.9,1.7-3.9,3.9c0,1.8,1.3,3.4,3,3.8v18.4l-14-14h-26c-0.4-1.7-1.9-3-3.8-3c-2.1,0-3.9,1.7-3.9,3.9
			C406,246.2,407.8,247.9,409.9,247.9"/>
		<path class="st7" d="M476.2,396.1c1.4-0.4,2.4-1.7,2.4-3.2c0-1.8-1.5-3.3-3.3-3.3c-1.8,0-3.3,1.5-3.3,3.3c0,1.5,1,2.8,2.4,3.2v8.3
			l17,17v7.2h1.8v-8l-17-17V396.1"/>
		<path class="st7" d="M504.3,298.5c-1.6,0-2.9-1.3-2.9-2.9c0-1.6,1.3-2.9,2.9-2.9c1.6,0,2.9,1.3,2.9,2.9
			C507.2,297.2,505.9,298.5,504.3,298.5z M500.5,295.6c0,2.1,1.7,3.8,3.8,3.8c2.1,0,3.8-1.7,3.8-3.8c0-1.8-1.2-3.3-2.9-3.7v-18.5
			l-8.5-8.5v36.2l-5.4,5.4c-1.3-0.7-2.9-0.6-4,0.5c-1.3,1.3-1.3,3.4,0,4.7c1.3,1.3,3.4,1.3,4.7,0c1.1-1.1,1.3-2.7,0.5-4l6-6v-32.7
			l5,5V292C501.7,292.4,500.5,293.9,500.5,295.6"/>
		<path class="st7" d="M496.6,204.3c0-1.5-1-2.7-2.4-3.1l0-29.3l12.8-12.8h9.3c0.4,1.4,1.6,2.4,3.1,2.4c1.8,0,3.3-1.5,3.3-3.3
			c0-1.8-1.5-3.3-3.3-3.3c-1.5,0-2.7,1-3.1,2.4h-10l-13.8,13.9v30c-1.4,0.4-2.4,1.6-2.4,3.1c0,1.8,1.5,3.3,3.3,3.3
			C495.1,207.6,496.6,206.1,496.6,204.3"/>
		<path class="st7" d="M420.9,176.6c1.7,0,3.1,1.4,3.1,3.1c0,1.7-1.4,3.1-3.1,3.1c-1.7,0-3.1-1.4-3.1-3.1
			C417.9,178,419.2,176.6,420.9,176.6z M467,167.2c1.7,0,3.1,1.4,3.1,3.1s-1.4,3.1-3.1,3.1c-1.7,0-3.1-1.4-3.1-3.1
			S465.3,167.2,467,167.2z M420.9,183.7c1.9,0,3.5-1.3,3.9-3.1h26l15.2,15.2v12.9l-8.5-8.5h-11.7l-7.5,7.5c-1.4-0.8-3.1-0.6-4.2,0.6
			c-1.4,1.4-1.4,3.6,0,5c1.4,1.4,3.6,1.4,5,0c1.2-1.2,1.3-2.9,0.6-4.2l7-7h10.2l9.3,9.3v10.9l12,12v36.5c-1.5,0.4-2.6,1.8-2.6,3.4
			c0,2,1.6,3.5,3.5,3.5c2,0,3.5-1.6,3.5-3.5c0-1.6-1.1-3-2.6-3.4v-37.3l-12-12v-47.4c1.8-0.4,3.1-2,3.1-3.9c0-2.2-1.8-4-4-4
			c-2.2,0-4,1.8-4,4c0,1.9,1.3,3.5,3.1,3.9v19l-14.4-14.4h-26.8c-0.4-1.8-2-3.1-3.9-3.1c-2.2,0-4,1.8-4,4
			C416.9,181.9,418.7,183.7,420.9,183.7"/>
		<path class="st7" d="M492.7,245c-1.6,0-2.8-1.3-2.8-2.8c0-1.6,1.3-2.8,2.8-2.8c1.6,0,2.8,1.3,2.8,2.8
			C495.6,243.8,494.3,245,492.7,245z M505.5,252.9l-5.3-5.3v-35.3l-8.3,8.3v18c-1.6,0.4-2.8,1.8-2.8,3.6c0,2,1.7,3.7,3.7,3.7
			c2,0,3.7-1.7,3.7-3.7c0-1.7-1.2-3.2-2.8-3.6v-17.3l4.8-4.8v31.9l5.8,5.8c-0.7,1.2-0.5,2.8,0.5,3.9c1.3,1.3,3.3,1.3,4.6,0
			c1.3-1.3,1.3-3.3,0-4.6C508.3,252.4,506.7,252.2,505.5,252.9"/>
	</g>
</g>
</svg>
